<?xml version="1.0" encoding="utf-8"?>
<!-- Generator: Adobe Illustrator 17.0.2, SVG Export Plug-In . SVG Version: 6.00 Build 0)  -->
<!DOCTYPE svg PUBLIC "-//W3C//DTD SVG 1.1//EN" "http://www.w3.org/Graphics/SVG/1.1/DTD/svg11.dtd">
<svg version="1.1" id="Layer_1" xmlns="http://www.w3.org/2000/svg" xmlns:xlink="http://www.w3.org/1999/xlink" x="0px" y="0px"
	 width="1383.916626px" height="542.4711914px" viewBox="0 0 1383.916626 542.4711914"
	 enable-background="new 0 0 1383.916626 542.4711914" xml:space="preserve">
<g>
	<g>
		<path fill="#FFFFFF" d="M57.0014648,45.8891602l31.1166992,134.9638672l6.777832,37.5605469l6.7983398-36.7910156
			l26.6196289-135.7333984h51.9648438l28.0039062,134.9443359l7.1723633,37.5800781l7.2753906-36.1181641l31.4189453-136.40625
			h50.1411133l-66.3032227,235.6816406H190.831543l-28.4604492-137.8271484l-8.3144531-45.5693359l-8.3144531,45.5693359
			L117.28125,281.5708008H71.5444336L4.7167969,45.8891602H57.0014648z"/>
		<path fill="#FFFFFF" d="M485.3671875,260.6245117c-17.8032227,18.3359375-43.5458984,27.5019531-77.2280273,27.5019531
			c-33.6850586,0-59.4277344-9.1660156-77.2285156-27.5019531c-23.8789062-22.4892578-35.815918-54.8955078-35.815918-97.2138672
			c0-43.1713867,11.9370117-75.574707,35.815918-97.2148438c17.8007812-18.3330078,43.543457-27.5019531,77.2285156-27.5019531
			c33.6821289,0,59.4248047,9.1689453,77.2280273,27.5019531c23.769043,21.6401367,35.6557617,54.043457,35.6557617,97.2148438
			C521.0229492,205.7290039,509.1362305,238.1352539,485.3671875,260.6245117z M454.5878906,224.809082
			c11.4570312-14.390625,17.1884766-34.8564453,17.1884766-61.3984375c0-26.4350586-5.7314453-46.8740234-17.1884766-61.3193359
			c-11.4599609-14.4428711-26.9418945-21.6655273-46.4487305-21.6655273c-19.5073242,0-35.0717773,7.1953125-46.6889648,21.5859375
			c-11.6196289,14.3901367-17.4282227,34.8564453-17.4282227,61.3989258c0,26.5419922,5.8085938,47.0078125,17.4282227,61.3984375
			c11.6171875,14.390625,27.1816406,21.5849609,46.6889648,21.5849609
			C427.6459961,246.394043,443.1279297,239.199707,454.5878906,224.809082z"/>
		<path fill="#FFFFFF" d="M679.5043945,51.965332c8.6796875,3.7324219,16.0351562,9.2211914,22.0625,16.46875
			c4.9902344,5.9711914,8.9394531,12.5791016,11.8496094,19.8266602c2.9121094,7.25,4.3671875,15.5097656,4.3671875,24.7832031
			c0,11.1923828-2.8242188,22.2001953-8.4746094,33.0180664c-5.6503906,10.8203125-14.9765625,18.4677734-27.9804688,22.9443359
			c10.8730469,4.3720703,18.5722656,10.5800781,23.1054688,18.6279297
			c4.5292969,8.0488281,6.7949219,20.3330078,6.7949219,36.8544922v15.8300781
			c0,10.7675781,0.4316406,18.0673828,1.2988281,21.9052734c1.2988281,6.0751953,4.3300781,10.5527344,9.09375,13.4306641v5.9160156
			h-54.3632812c-1.4941406-5.2216797-2.5576172-9.4335938-3.1972656-12.6318359
			c-1.2792969-6.6074219-1.9736328-13.3759766-2.0791016-20.3056641l-0.3193359-21.9052734
			c-0.203125-15.0302734-2.7988281-25.0488281-7.7900391-30.0605469
			c-4.9912109-5.0087891-14.3452148-7.5146484-28.0561523-7.5146484H577.71875v92.4179688h-48.1274414V45.8891602h112.7285156
			C658.4291992,46.2089844,670.8266602,48.2353516,679.5043945,51.965332z M577.71875,86.8217773v63.3173828h52.9995117
			c10.5273438,0,18.4228516-1.2792969,23.6884766-3.8374023c9.3144531-4.4770508,13.9707031-13.3237305,13.9707031-26.5419922
			c0-14.2832031-4.5068359-23.8764648-13.515625-28.7807617c-5.0615234-2.7705078-12.6542969-4.1572266-22.7768555-4.1572266
			H577.71875z"/>
		<path fill="#FFFFFF" d="M770.3227539,208.8198242c1.5234375,10.7675781,4.5166016,18.8144531,8.9785156,24.1435547
			c8.1621094,9.7011719,22.1484375,14.5507812,41.9570312,14.5507812c11.8623047,0,21.4960938-1.2792969,28.8955078-3.8378906
			c14.0410156-4.9013672,21.0615234-14.015625,21.0615234-27.3417969c0-7.7792969-3.4404297-13.8027344-10.3164062-18.0673828
			c-6.8798828-4.1572266-17.7880859-7.8349609-32.7226562-11.0332031l-25.515625-5.5957031
			c-25.078125-5.5410156-42.3066406-11.5654297-51.6845703-18.0683594
			c-15.8847656-10.8725586-23.8242188-27.8735352-23.8242188-51.0053711c0-21.105957,7.7675781-38.6391602,23.3066406-52.6044922
			c15.5400391-13.9633789,38.3613281-20.9462891,68.46875-20.9462891c25.140625,0,46.5869141,6.5830078,64.3398438,19.7470703
			c17.75,13.1660156,27.0566406,32.2729492,27.9208984,57.3212891h-47.328125
			c-0.8740234-14.175293-7.2128906-24.2485352-19.0146484-30.2197266
			c-7.8701172-3.9423828-17.6484375-5.9160156-29.3408203-5.9160156c-13.0058594,0-23.3867188,2.5581055-31.1464844,7.6748047
			s-11.6367188,12.2592773-11.6367188,21.4257812c0,8.421875,3.8251953,14.7099609,11.4746094,18.8671875
			c4.9169922,2.7729492,15.3525391,6.0234375,31.3115234,9.753418l41.359375,9.753418
			c18.1279297,4.2646484,31.7138672,9.9682617,40.7626953,17.1088867
			c14.0478516,11.0869141,21.0732422,27.1289062,21.0732422,48.1269531c0,21.5332031-8.3242188,39.4140625-24.9707031,53.6445312
			s-40.1601562,21.3457031-70.5419922,21.3457031c-31.0292969,0-55.4326172-7.0078125-73.2109375-21.0263672
			c-17.7783203-14.015625-26.6650391-33.2822266-26.6650391-57.8007812H770.3227539z"/>
		<path fill="#FFFFFF" d="M922.793457,281.5708008V45.8891602h48.9277344v89.8598633h91.6181641V45.8891602h48.9267578v235.6816406
			h-48.9267578V176.3618164h-91.6181641v105.2089844H922.793457z"/>
		<path fill="#FFFFFF" d="M1174.3979492,281.5708008h-48.9267578V45.8891602h48.9267578V281.5708008z"/>
		<path fill="#FFFFFF" d="M1348.5444336,179.559082c-13.7958984,11.5126953-33.4980469,17.2685547-59.1054688,17.2685547
			h-49.0722656v84.7431641h-48.9267578V45.8891602h101.1943359c23.3291016,0,41.9296875,6.0761719,55.7998047,18.2280273
			c13.8710938,12.1518555,20.8066406,30.9663086,20.8066406,56.4418945
			C1369.2407227,148.3803711,1362.340332,168.0473633,1348.5444336,179.559082z M1310.9575195,94.65625
			c-6.2363281-5.2211914-14.9726562-7.8344727-26.2099609-7.8344727h-44.3808594v69.3935547h44.3808594
			c11.2373047,0,19.9736328-2.8232422,26.2099609-8.4746094c6.2353516-5.6484375,9.3554688-14.6025391,9.3554688-26.8618164
			C1320.3129883,108.6220703,1317.1928711,99.8803711,1310.9575195,94.65625z"/>
	</g>
	<g>
		<path fill="#FFFFFF" d="M598.4384766,342.7055664c-2.3330078-10.0585938-8.0292969-17.0878906-17.0883789-21.0859375
			c-5.0639648-2.1982422-10.6928711-3.2978516-16.8886719-3.2978516c-11.859375,0-21.6030273,4.4726562-29.2304688,13.4160156
			c-7.6293945,8.9443359-11.4423828,22.3916016-11.4423828,40.34375c0,18.0878906,4.1298828,30.8867188,12.3916016,38.4003906
			c8.2602539,7.5136719,17.6538086,11.2705078,28.1811523,11.2705078c10.3256836,0,18.7871094-2.9619141,25.3828125-8.8876953
			s10.6586914-13.6894531,12.1918945-23.2910156h-34.0771484v-24.5830078h61.3588867v79.046875H608.831543l-3.0981445-18.3876953
			c-5.9301758,6.9638672-11.2597656,11.8730469-15.9892578,14.7246094
			c-8.1289062,4.9726562-18.1220703,7.4609375-29.9799805,7.4609375c-19.5209961,0-35.5102539-6.7587891-47.9677734-20.2744141
			c-12.9912109-13.5810547-19.4868164-32.15625-19.4868164-55.7265625c0-23.8339844,6.5615234-42.9433594,19.6870117-57.3242188
			c13.1240234-14.3808594,30.4794922-21.5712891,52.0649414-21.5712891c18.7202148,0,33.7602539,4.7470703,45.1196289,14.2402344
			c11.3579102,9.4941406,17.8706055,21.3359375,19.5371094,35.5263672H598.4384766z"/>
		<path fill="#FFFFFF" d="M753.1918945,430.9467773c-11.1269531,11.4589844-27.2167969,17.1884766-48.2675781,17.1884766
			c-21.0527344,0-37.1416016-5.7294922-48.2675781-17.1884766c-14.9238281-14.0566406-22.3842773-34.3105469-22.3842773-60.7597656
			c0-26.9814453,7.4604492-47.2333984,22.3842773-60.7587891c11.1259766-11.4580078,27.2148438-17.1884766,48.2675781-17.1884766
			c21.0507812,0,37.140625,5.7304688,48.2675781,17.1884766c14.8554688,13.5253906,22.2851562,33.7773438,22.2851562,60.7587891
			C775.4770508,396.6362305,768.0473633,416.8901367,753.1918945,430.9467773z M733.9555664,408.5610352
			c7.1601562-8.9931641,10.7421875-21.7851562,10.7421875-38.3740234c0-16.5214844-3.5820312-29.2958984-10.7421875-38.3242188
			c-7.1621094-9.0263672-16.8398438-13.5410156-29.03125-13.5410156s-21.9199219,4.4970703-29.1796875,13.4912109
			c-7.2626953,8.9941406-10.8925781,21.7851562-10.8925781,38.3740234s3.6298828,29.3808594,10.8925781,38.3740234
			c7.2597656,8.9941406,16.9882812,13.4912109,29.1796875,13.4912109S726.793457,417.5551758,733.9555664,408.5610352z"/>
		<path fill="#FFFFFF" d="M866.4428711,299.934082c10.3339844,3.3984375,18.7011719,9.6279297,25.1035156,18.6875
			c5.1337891,7.3300781,8.6328125,15.2568359,10.5009766,23.7841797c1.8671875,8.5283203,2.8007812,16.65625,2.8007812,24.3837891
			c0,19.5869141-3.9345703,36.1757812-11.8017578,49.7666016c-10.6679688,18.3222656-27.1357422,27.4814453-49.4052734,27.4814453
			h-63.5087891V296.7368164h63.5087891C852.7749023,296.8706055,860.3745117,297.9360352,866.4428711,299.934082z
			 M810.012207,322.3198242v96.1347656h28.4257812c14.546875,0,24.6884766-7.1601562,30.4267578-21.4853516
			c3.1347656-7.8603516,4.7041016-17.2216797,4.7041016-28.0810547c0-14.9902344-2.3525391-26.4980469-7.0556641-34.5273438
			c-4.7050781-8.0273438-14.0625-12.0410156-28.0751953-12.0410156H810.012207z"/>
		<path fill="#FFFFFF" d="M1018.9643555,312.4262695c4.5058594,6.2626953,6.7607422,13.7578125,6.7607422,22.484375
			c0,8.9941406-2.2744141,16.2236328-6.8222656,21.6855469c-2.5419922,3.0654297-6.2861328,5.8632812-11.234375,8.3945312
			c7.5166016,2.7324219,13.1894531,7.0625,17.015625,12.9912109c3.8251953,5.9306641,5.7382812,13.1259766,5.7382812,21.5859375
			c0,8.7285156-2.1865234,16.5556641-6.5585938,23.4833984c-2.7822266,4.5976562-6.2597656,8.4619141-10.4316406,11.5927734
			c-4.703125,3.5976562-10.2509766,6.0625-16.6435547,7.3945312c-6.3925781,1.3339844-13.3300781,1.9990234-20.8144531,1.9990234
			h-66.3710938V296.7368164h71.1855469C998.7495117,297.003418,1011.4750977,302.2329102,1018.9643555,312.4262695z
			 M938.9838867,322.3198242v32.4775391h35.8007812c6.3955078,0,11.5869141-1.2148438,15.5771484-3.6474609
			c3.9873047-2.4306641,5.9833984-6.7451172,5.9833984-12.9414062c0-6.8603516-2.6376953-11.3925781-7.9121094-13.5908203
			c-4.5498047-1.53125-10.3525391-2.2978516-17.4072266-2.2978516H938.9838867z M938.9838867,379.1811523v39.2734375h35.7617188
			c6.3857422,0,11.359375-0.8652344,14.9160156-2.5976562c6.4541016-3.1982422,9.6816406-9.3271484,9.6816406-18.3876953
			c0-7.6611328-3.1289062-12.9248047-9.3847656-15.7900391c-3.4912109-1.5986328-8.3974609-2.4306641-14.7197266-2.4980469
			H938.9838867z"/>
		<path fill="#FFFFFF" d="M1151.5004883,430.9467773c-11.1269531,11.4589844-27.2167969,17.1884766-48.2675781,17.1884766
			c-21.0537109,0-37.1425781-5.7294922-48.2675781-17.1884766c-14.9248047-14.0566406-22.3857422-34.3105469-22.3857422-60.7597656
			c0-26.9814453,7.4609375-47.2333984,22.3857422-60.7587891c11.125-11.4580078,27.2138672-17.1884766,48.2675781-17.1884766
			c21.0507812,0,37.140625,5.7304688,48.2675781,17.1884766c14.8554688,13.5253906,22.2841797,33.7773438,22.2841797,60.7587891
			C1173.784668,396.6362305,1166.355957,416.8901367,1151.5004883,430.9467773z M1132.2631836,408.5610352
			c7.1611328-8.9931641,10.7421875-21.7851562,10.7421875-38.3740234c0-16.5214844-3.5810547-29.2958984-10.7421875-38.3242188
			c-7.1621094-9.0263672-16.8388672-13.5410156-29.0302734-13.5410156c-12.1923828,0-21.9199219,4.4970703-29.1806641,13.4912109
			c-7.2626953,8.9941406-10.8925781,21.7851562-10.8925781,38.3740234s3.6298828,29.3808594,10.8925781,38.3740234
			c7.2607422,8.9941406,16.9882812,13.4912109,29.1806641,13.4912109
			C1115.4243164,422.0522461,1125.1010742,417.5551758,1132.2631836,408.5610352z"/>
		<path fill="#FFFFFF" d="M1201.9750977,444.0375977h-35.7763672l47.3681641-75.0498047l-45.0693359-72.2509766h36.7753906
			l26.2714844,47.9707031l26.9921875-47.9707031h35.5761719l-45.0693359,71.0517578l47.8671875,76.2490234h-37.375
			l-27.9882812-50.2255859L1201.9750977,444.0375977z"/>
	</g>
	<g>
		<path fill="#FFFFFF" d="M95.434082,398.6860352H74.2792969V296.7827148H95.434082V398.6860352z"/>
		<path fill="#FFFFFF" d="M101.9731445,296.7827148h22.3222656l40.4511719,71.0546875v-71.0546875h19.8413086v101.9033203
			h-21.2890625l-41.484375-72.3046875v72.3046875h-19.8413086V296.7827148z"/>
		<path fill="#FFFFFF" d="M291.8950195,296.7827148v18.0439453h-30.487793v83.859375h-21.4316406v-83.859375h-30.6264648
			v-18.0439453H291.8950195z"/>
		<path fill="#FFFFFF" d="M291.1748047,398.6860352V296.7827148h21.1552734v38.8535156h39.6132812v-38.8535156h21.1552734
			v101.9033203h-21.1552734v-45.4902344h-39.6132812v45.4902344H291.1748047z"/>
		<path fill="#FFFFFF" d="M455.8920898,314.8266602h-53.9243164v21.6386719h49.5v17.6982422h-49.5v26.2021484h56.4130859v18.3203125
			h-77.222168V296.7827148h74.7333984V314.8266602z"/>
	</g>
	
		<line fill="none" stroke="#FFFFFF" stroke-width="44" stroke-miterlimit="10" x1="71.8790817" y1="428.4203796" x2="459.7312012" y2="428.4203796"/>
	<g>
		<path fill="#FFFFFF" d="M857.6088867,489.9868164c0.3125,2.2070312,0.9257812,3.8554688,1.8398438,4.9472656
			c1.6728516,1.9882812,4.5390625,2.9824219,8.5986328,2.9824219c2.4306641,0,4.4042969-0.2626953,5.9208984-0.7871094
			c2.8769531-1.0039062,4.3154297-2.8720703,4.3154297-5.6025391c0-1.59375-0.7050781-2.828125-2.1132812-3.7021484
			c-1.4101562-0.8525391-3.6455078-1.6054688-6.7060547-2.2607422l-5.2285156-1.1474609
			c-5.1386719-1.1347656-8.6689453-2.3691406-10.5908203-3.7021484c-3.2548828-2.2275391-4.8818359-5.7119141-4.8818359-10.4521484
			c0-4.3242188,1.5908203-7.9179688,4.7753906-10.7792969s7.8613281-4.2919922,14.0302734-4.2919922
			c5.1523438,0,9.546875,1.3486328,13.1845703,4.0458984c3.6376953,2.6982422,5.5449219,6.6132812,5.7216797,11.7460938h-9.6982422
			c-0.1796875-2.9042969-1.4785156-4.96875-3.8964844-6.1923828c-1.6123047-0.8076172-3.6162109-1.2119141-6.0126953-1.2119141
			c-2.6650391,0-4.7919922,0.5244141-6.3818359,1.5722656c-1.5908203,1.0488281-2.3847656,2.5126953-2.3847656,4.390625
			c0,1.7255859,0.7832031,3.0146484,2.3505859,3.8662109c1.0078125,0.5683594,3.1464844,1.234375,6.4169922,1.9990234
			l8.4746094,1.9990234c3.7148438,0.8730469,6.4990234,2.0419922,8.3535156,3.5058594
			c2.8789062,2.2714844,4.3183594,5.5585938,4.3183594,9.8613281c0,4.4130859-1.7060547,8.0771484-5.1171875,10.9931641
			s-8.2294922,4.3740234-14.4550781,4.3740234c-6.3583984,0-11.359375-1.4365234-15.0029297-4.3085938
			c-3.6425781-2.8720703-5.4638672-6.8203125-5.4638672-11.8447266H857.6088867z"/>
		<path fill="#FFFFFF" d="M888.918457,456.6000977h10.2558594v29.6611328c0,3.3173828,0.3916016,5.7402344,1.1748047,7.2675781
			c1.21875,2.7070312,3.8740234,4.0595703,7.9658203,4.0595703c4.0703125,0,6.7148438-1.3525391,7.9335938-4.0595703
			c0.7832031-1.5273438,1.1757812-3.9501953,1.1757812-7.2675781v-29.6611328h10.2548828v29.6845703
			c0,5.1328125-0.7958984,9.1308594-2.3876953,11.9921875c-2.9658203,5.2421875-8.6240234,7.8632812-16.9765625,7.8632812
			c-8.3515625,0-14.0214844-2.6210938-17.0087891-7.8632812c-1.5917969-2.8613281-2.3876953-6.859375-2.3876953-11.9921875
			V456.6000977z"/>
		<path fill="#FFFFFF" d="M931.0405273,456.6000977h10.5800781l19.1708984,33.6748047v-33.6748047h9.4033203v48.2949219h-10.0898438
			l-19.6611328-34.2675781v34.2675781h-9.4033203V456.6000977z"/>
		<path fill="#FFFFFF" d="M1001.7885742,457.6479492c3.3876953,1.1142578,6.1318359,3.1572266,8.2304688,6.1269531
			c1.6835938,2.4033203,2.8300781,5.0029297,3.4423828,7.7978516c0.6123047,2.796875,0.9189453,5.4609375,0.9189453,7.9951172
			c0,6.421875-1.2900391,11.8603516-3.8691406,16.3164062c-3.4980469,6.0078125-8.8974609,9.0107422-16.1992188,9.0107422
			h-20.8222656v-48.2949219h20.8222656C997.3071289,456.644043,999.7993164,456.9926758,1001.7885742,457.6479492z
			 M983.2866211,464.987793v31.5195312h9.3203125c4.7685547,0,8.09375-2.3476562,9.9755859-7.0449219
			c1.0283203-2.5771484,1.5419922-5.6455078,1.5419922-9.2070312c0-4.9140625-0.7714844-8.6875-2.3134766-11.3193359
			c-1.5419922-2.6328125-4.6103516-3.9482422-9.2041016-3.9482422H983.2866211z"/>
		<path fill="#FFFFFF" d="M1029.5864258,456.6000977h11.4179688l17.0869141,48.2949219h-10.9433594l-3.1865234-9.9277344
			h-17.7851562l-3.2744141,9.9277344h-10.5556641L1029.5864258,456.6000977z M1028.9213867,486.6450195h12.3681641
			l-6.1005859-19.0039062L1028.9213867,486.6450195z"/>
		<path fill="#FFFFFF" d="M1085.6166992,456.6000977h11.4345703l-16.1533203,30.1865234v18.1083984h-10.0917969v-18.1083984
			l-16.7099609-30.1865234h11.8935547l10.0263672,21.0341797L1085.6166992,456.6000977z"/>
		<path fill="#FFFFFF" d="M1103.9174805,489.9868164c0.3125,2.2070312,0.9257812,3.8554688,1.8398438,4.9472656
			c1.6728516,1.9882812,4.5390625,2.9824219,8.5986328,2.9824219c2.4306641,0,4.4042969-0.2626953,5.9208984-0.7871094
			c2.8769531-1.0039062,4.3154297-2.8720703,4.3154297-5.6025391c0-1.59375-0.7050781-2.828125-2.1132812-3.7021484
			c-1.4101562-0.8525391-3.6455078-1.6054688-6.7060547-2.2607422l-5.2285156-1.1474609
			c-5.1386719-1.1347656-8.6689453-2.3691406-10.5908203-3.7021484c-3.2548828-2.2275391-4.8818359-5.7119141-4.8818359-10.4521484
			c0-4.3242188,1.5908203-7.9179688,4.7753906-10.7792969s7.8613281-4.2919922,14.0302734-4.2919922
			c5.1523438,0,9.546875,1.3486328,13.1845703,4.0458984c3.6376953,2.6982422,5.5449219,6.6132812,5.7216797,11.7460938h-9.6982422
			c-0.1796875-2.9042969-1.4785156-4.96875-3.8964844-6.1923828c-1.6123047-0.8076172-3.6162109-1.2119141-6.0126953-1.2119141
			c-2.6650391,0-4.7919922,0.5244141-6.3818359,1.5722656c-1.5908203,1.0488281-2.3847656,2.5126953-2.3847656,4.390625
			c0,1.7255859,0.7832031,3.0146484,2.3505859,3.8662109c1.0078125,0.5683594,3.1464844,1.234375,6.4169922,1.9990234
			l8.4746094,1.9990234c3.7148438,0.8730469,6.4990234,2.0419922,8.3535156,3.5058594
			c2.8789062,2.2714844,4.3183594,5.5585938,4.3183594,9.8613281c0,4.4130859-1.7060547,8.0771484-5.1171875,10.9931641
			s-8.2294922,4.3740234-14.4550781,4.3740234c-6.3583984,0-11.359375-1.4365234-15.0029297-4.3085938
			c-3.6425781-2.8720703-5.4638672-6.8203125-5.4638672-11.8447266H1103.9174805z"/>
		<path fill="#FFFFFF" d="M1149.0083008,471.5893555v-4.5214844c4.2597656-0.4150391,7.2294922-1.1083984,8.9121094-2.0810547
			c1.6816406-0.9716797,2.9375-3.2705078,3.7675781-6.8964844h4.6533203v46.7226562h-6.2910156v-33.2236328H1149.0083008z"/>
		<path fill="#FFFFFF" d="M1205.0561523,465.3969727c2.0966797,3.8662109,3.1455078,9.1630859,3.1455078,15.890625
			c0,6.3789062-0.9501953,11.6533203-2.8505859,15.8251953c-2.7519531,5.9853516-7.2519531,8.9775391-13.4990234,8.9775391
			c-5.6357422,0-9.8300781-2.4453125-12.5820312-7.3388672c-2.2929688-4.0839844-3.4404297-9.5673828-3.4404297-16.4482422
			c0-5.3291016,0.6884766-9.9052734,2.0644531-13.7285156c2.5771484-7.1201172,7.2412109-10.6806641,13.9902344-10.6806641
			C1197.956543,457.894043,1202.347168,460.3950195,1205.0561523,465.3969727z M1199.1206055,496.6547852
			c1.8164062-2.7080078,2.7246094-7.7539062,2.7246094-15.1376953c0-5.3291016-0.6572266-9.7148438-1.9697266-13.1552734
			s-3.8613281-5.1601562-7.6464844-5.1601562c-3.4794922,0-6.0224609,1.6328125-7.6308594,4.8984375
			s-2.4121094,8.0761719-2.4121094,14.4326172c0,4.7841797,0.5146484,8.6289062,1.5429688,11.5332031
			c1.5751953,4.4345703,4.2666016,6.6513672,8.0732422,6.6513672
			C1194.8647461,500.7172852,1197.3041992,499.362793,1199.1206055,496.6547852z"/>
		<path fill="#FFFFFF" d="M1224.0356445,456.6811523h7.3603516l17.4697266,48.1318359h-7.1435547l-5.0244141-14.4169922h-18.8837891
			l-5.2197266,14.4169922h-6.6835938L1224.0356445,456.6811523z M1234.847168,485.0883789l-7.4101562-21.2646484
			l-7.7001953,21.2646484H1234.847168z"/>
		<path fill="#FFFFFF" d="M1248.409668,456.6811523h9.3408203l13.8408203,40.6943359l13.7412109-40.6943359h9.2753906v48.1318359
			h-6.2246094v-28.4072266c0-0.9824219,0.0214844-2.609375,0.0654297-4.8818359
			c0.0429688-2.2714844,0.0654297-4.7070312,0.0654297-7.3066406l-13.7421875,40.5957031h-6.4609375l-13.8720703-40.5957031
			v1.4746094c0,1.1796875,0.0322266,2.9765625,0.0976562,5.3896484c0.0654297,2.4140625,0.0986328,4.1884766,0.0986328,5.3242188
			v28.4072266h-6.2255859V456.6811523z"/>
	</g>
</g>
</svg>
