<?xml version="1.0" encoding="utf-8"?>
<!-- Generator: Adobe Illustrator 17.1.0, SVG Export Plug-In . SVG Version: 6.00 Build 0)  -->
<!DOCTYPE svg PUBLIC "-//W3C//DTD SVG 1.1//EN" "http://www.w3.org/Graphics/SVG/1.1/DTD/svg11.dtd">
<svg version="1.1" id="Layer_1" xmlns="http://www.w3.org/2000/svg" xmlns:xlink="http://www.w3.org/1999/xlink" x="0px" y="0px"
	 viewBox="0 0 250 250" enable-background="new 0 0 250 250" xml:space="preserve">
<g>
	<path fill="#3E3E3E" d="M87.4650879,43.532959c9.5859375-6.1733398,21.3671875-9.262207,35.3417969-9.262207
		c18.3588867,0,33.612793,4.387207,45.7592773,13.1616211c12.1455078,8.7744141,18.2197266,21.7739258,18.2197266,38.9970703
		c0,10.5625-2.6337891,19.4584961-7.9003906,26.6884766c-3.0791016,4.387207-8.9931641,9.9931641-17.7451172,16.8173828
		l-8.6279297,6.703125c-4.7011719,3.65625-7.8203125,7.9208984-9.3583984,12.7958984
		c-0.9736328,3.0878906-1.5009766,7.8808594-1.5810547,14.3798828h-33.0249023
		c0.4853516-13.7285156,1.7822266-23.2148438,3.8886719-28.4550781c2.1054688-5.2402344,7.5322266-11.2734375,16.2797852-18.0976562
		l8.8710938-6.9462891c2.9160156-2.1938477,5.265625-4.5893555,7.0478516-7.1899414
		c3.2382812-4.4672852,4.859375-9.3837891,4.859375-14.7460938c0-6.1733398-1.8037109-11.7998047-5.4101562-16.878418
		c-3.6064453-5.0761719-10.1923828-7.6162109-19.7543945-7.6162109c-9.4033203,0-16.0712891,3.128418-20.0019531,9.3833008
		c-3.9296875,6.2573242-5.8945312,12.7558594-5.8945312,19.4985352H63.2141113
		C64.1896973,69.6120605,72.2727051,53.2019043,87.4650879,43.532959z M107.6955566,180.5095215h36.4370117v35.2197266h-36.4370117
		V180.5095215z"/>
</g>
</svg>
